<?xml version="1.0" ?><svg id="Layer_1" style="enable-background:new 0 0 100 100;" version="1.1" viewBox="0 0 100 100" xml:space="preserve" xmlns="http://www.w3.org/2000/svg" xmlns:xlink="http://www.w3.org/1999/xlink"><title/><style type="text/css">
	.st0{fill:#FFFFFF;}
	.st1{fill:#1B1464;}
	.st2{fill:#C1272D;}
	.st3{fill:none;}
</style><g><path class="st1" d="M28.6,57.2L7.9,37.1C6.7,41.2,6,45.5,6,50c0,14.5,7,27.3,17.8,35.3L28.6,57.2z"/></g><g><path class="st1" d="M36.8,32L49.6,6C30.3,6.2,14,18.8,8.2,36.2L36.8,32z"/></g><g><path class="st1" d="M63.2,32l28.5,4.1C86,18.8,69.7,6.2,50.4,6L63.2,32z"/></g><g><path class="st1" d="M92.1,37.1L71.4,57.2l4.8,28.1C87,77.3,94,64.5,94,50C94,45.5,93.3,41.2,92.1,37.1z"/></g><g><path class="st1" d="M50,72.8L24.8,86c7.1,5,15.8,8,25.2,8s18.1-3,25.2-8L50,72.8z"/></g><polygon class="st2" points="50,67.2 30.2,77.6 34,55.5 17.9,39.9 40.1,36.7 50,16.6 59.9,36.7 82.1,39.9 66,55.5 69.8,77.6 "/></svg>